<?xml version="1.0" encoding="UTF-8"?> <svg xmlns="http://www.w3.org/2000/svg" xmlns:xlink="http://www.w3.org/1999/xlink" width="96px" height="96px" viewBox="0 0 96 96" version="1.1"><title>Icons / Career / Fair share</title><g id="Icons-/-Career-/-Fair-share" stroke="none" stroke-width="1" fill="none" fill-rule="evenodd"><g id="work-team" transform="translate(18.000000, 13.004277)" fill="#80BD26" fill-rule="nonzero"><path d="M57.6923076,40.9030903 L57.6923076,40.8447565 C57.6857339,36.518938 55.0580686,32.6391838 51.0715384,31.0691748 L53.6826923,30.019166 C54.5679531,29.6600199 55.1848522,28.8361199 55.2865384,27.8771482 C55.3564571,27.1404179 55.3891919,26.400563 55.3846153,25.660463 C55.3893368,24.9250465 55.3569872,24.1898646 55.2876923,23.4577779 C55.1896517,22.4917338 54.56969,21.6604201 53.6780769,21.2994265 L50.316923,19.9437486 C49.8603668,18.284241 49.2051346,16.6873021 48.3657692,15.1883755 L49.7873077,11.8213474 C50.1800924,10.9334643 50.0376607,9.89682477 49.4203846,9.15082507 C49.0130769,8.65265424 48.5480769,8.13698327 47.9411538,7.50814469 C47.3365384,6.91080636 46.8265384,6.44180244 46.3511538,6.04629914 C45.6130514,5.41347436 44.581942,5.26343423 43.6973077,5.66012925 L40.3603846,7.09280788 C38.8765984,6.24465945 37.2960968,5.58254901 35.6538461,5.12112475 L34.3107692,1.72026301 C33.9562087,0.824667575 33.1410281,0.200647648 32.1923077,0.0985827945 C30.7378991,-0.0328609315 29.2747932,-0.0328609315 27.8203846,0.0985827945 C26.8639355,0.198926532 26.0418452,0.82830688 25.6869231,1.73192977 L24.3461539,5.12112475 C22.7043006,5.5826382 21.1241915,6.24474658 19.6407693,7.09280788 L16.3107693,5.6577959 C15.4323175,5.25876406 14.4055944,5.4024089 13.6673077,6.02763232 C13.1734616,6.43830242 12.6634616,6.90730633 12.0415385,7.5221448 C11.4519231,8.13348324 10.9869231,8.64915422 10.5957693,9.12865822 C9.96939085,9.87460823 9.82012088,10.9170662 10.2115385,11.812014 L11.6342308,15.1802088 C10.7948654,16.6791354 10.1396332,18.2760742 9.68307696,19.9355818 L6.31730774,21.2982599 C5.43156142,21.656763 4.81440401,22.481008 4.71346159,23.4402778 C4.6435169,24.1770062 4.61078207,24.9168624 4.61538467,25.6569629 C4.61069116,26.3923789 4.64304075,27.1275593 4.71230774,27.859648 C4.81050547,28.8253562 5.43048715,29.6562472 6.32192312,30.0168327 L8.92846158,31.0668415 C4.94114762,32.6371607 2.31331668,36.5180856 2.30769236,40.8447565 L2.30769236,40.9030903 C0.964424326,41.1803326 0,42.3752358 0,43.7614475 L0,45.5114621 C0,47.4444749 1.54978362,49.0114914 3.46153852,49.0114914 C3.58505951,49.0086365 3.69538363,49.089201 3.73153851,49.2086597 C4.35447511,51.8751847 5.89463458,54.2309613 8.07692312,55.8552152 L8.07692312,57.2552269 C3.4673128,57.8424344 0.00769816837,61.8022655 0,66.4999708 L0,67.6666472 C0,68.9553224 1.0331891,70 2.30769236,70 L57.6923076,70 C58.9668109,70 60,68.9553224 60,67.6666472 L60,66.4999708 C59.9917217,61.8027101 56.532252,57.8435446 51.9230769,57.2563936 L51.9230769,55.8365484 C52.674824,55.3434957 53.3459586,54.7349623 53.9123076,54.0328666 C55.0189182,52.6109236 55.8205499,50.9715555 56.2661538,49.2191598 C56.3000584,49.0956549 56.4117004,49.0105141 56.5384615,49.0114914 C58.4462807,49.0019178 59.9905317,47.4404955 60,45.5114621 L60,43.7614475 C60,42.3752358 59.0355757,41.1803326 57.6923076,40.9030903 Z M11.7692308,30.2443346 C11.6837401,29.8743703 11.4254391,29.5696683 11.0769231,29.4276611 L7.18038466,27.8549813 C7.08870707,27.8201076 7.02261694,27.7381356 7.00730774,27.6403128 C6.9446112,26.9811506 6.91572634,26.3191469 6.92076928,25.6569629 C6.91595017,24.9904849 6.94522002,24.3242008 7.00846159,23.6607796 C7.0273638,23.5706364 7.08978672,23.4961232 7.17461543,23.4624446 L11.0769231,21.8897648 C11.422336,21.7502997 11.6800806,21.4510319 11.7692308,21.0859248 C12.2207011,19.2472732 12.9430049,17.4877035 13.9119231,15.8662145 C14.1036705,15.5447576 14.1307236,15.1496459 13.9846154,14.804539 L12.3323077,10.899673 C12.2907562,10.8125 12.3014766,10.7090722 12.36,10.6325041 C12.7246154,10.185667 13.148077,9.71549646 13.673077,9.17182525 C14.228077,8.62348733 14.693077,8.19531709 15.1523077,7.81264723 C15.2276244,7.76457495 15.3225278,7.76057667 15.4015385,7.80214714 L19.2692308,9.46932773 C19.6096262,9.61782745 20.0000719,9.59043582 20.3169231,9.39582712 C21.9205088,8.41845261 23.6597907,7.68936379 25.4769231,7.23280905 C25.838015,7.14266757 26.1339917,6.88205698 26.2719231,6.5328032 L27.8273077,2.59527032 C27.8619998,2.50272028 27.9429701,2.43597788 28.0396154,2.42026885 C29.3485822,2.30282605 30.6652639,2.30282605 31.9742308,2.42026885 C32.0638355,2.43921389 32.1377485,2.50295837 32.1703846,2.58943693 L33.7280769,6.5328032 C33.8660083,6.88205698 34.161985,7.14266757 34.5230769,7.23280905 C36.343404,7.68848266 38.085857,8.41759647 39.6923077,9.39582712 C40.0091589,9.59043582 40.3996046,9.61782745 40.74,9.46932773 L44.6076923,7.80214714 C44.6932144,7.75803602 44.7962707,7.76804672 44.871923,7.82781402 C45.3126923,8.19531709 45.7776923,8.62348733 46.3153846,9.1543251 C46.8576923,9.71549646 47.2811538,10.185667 47.661923,10.6511709 C47.7088233,10.7266761 47.7127723,10.8216195 47.6723077,10.9008397 L46.0153846,14.8068723 C45.8692764,15.1519793 45.8963295,15.547091 46.0880769,15.8685479 C47.0567828,17.4893129 47.7790804,19.2480809 48.2307692,21.0859248 C48.3199194,21.4510319 48.577664,21.7502997 48.9230769,21.8897648 L52.8184615,23.4601113 C52.909707,23.4955903 52.9755557,23.5772629 52.9915384,23.6747797 C53.054165,24.3339469 53.0830497,24.9959469 53.0780769,25.6581296 C53.0829242,26.3242199 53.0536542,26.9901171 52.9903846,27.6531463 C52.9720502,27.7439464 52.9088623,27.8188527 52.8230769,27.8514813 L48.9230769,29.4253278 C48.5745609,29.5673349 48.3162599,29.8720369 48.2307692,30.2420012 C48.2192307,30.289835 48.2042307,30.3388354 48.1926923,30.3866691 C47.901923,30.3621689 47.6157692,30.3423354 47.3123077,30.3423354 C46.6709456,30.3483758 46.0315762,30.4155627 45.4026923,30.5430038 C47.5097712,23.8249684 45.1175164,16.4980079 39.468829,12.368861 C33.8201416,8.23971403 26.1890891,8.23971403 20.5404018,12.368861 C14.8917144,16.4980079 12.4994595,23.8249684 14.6065385,30.5430038 C13.9760675,30.4160541 13.3351399,30.3496471 12.6923077,30.3446688 C12.3957693,30.3446688 12.1038462,30.3645023 11.8142308,30.3890025 C11.8015385,30.3400021 11.7853847,30.293335 11.7692308,30.2443346 Z M42.6923077,57.2598936 C41.243484,57.438313 39.8583661,57.966509 38.6538461,58.7999064 C37.4480382,57.9688062 36.0635855,57.4404639 34.6153846,57.2587269 L34.6153846,55.8587152 C36.5337047,54.4748452 37.9519131,52.4947261 38.6538461,50.2201681 C39.3576714,52.4928221 40.775559,54.4712645 42.6923077,55.8552152 L42.6923077,57.2598936 Z M40.3846154,67.6666472 L19.6153846,67.6666472 L19.6153846,66.4999708 C19.6234493,63.0183534 22.1608754,60.0719176 25.5703846,59.5850797 C26.1131819,61.6061118 27.9276496,63.0089833 29.9988462,63.0089833 C32.0700427,63.0089833 33.8845105,61.6061118 34.4273077,59.5850797 C37.8377331,60.0708641 40.3763869,63.0175837 40.3846154,66.4999708 L40.3846154,67.6666472 Z M17.3076923,55.8365484 C18.0594394,55.3434957 18.7305741,54.7349623 19.2969231,54.0328666 C20.194393,52.8850257 20.8852938,51.5865849 21.3380769,50.1968346 C22.039342,52.4796132 23.4606034,54.4674099 25.3846154,55.8563819 L25.3846154,57.2563936 C23.9362578,57.4390068 22.5518299,57.9681396 21.3461539,58.7999064 C20.1414481,57.9666657 18.7564647,57.4381208 17.3076923,57.2587269 L17.3076923,55.8365484 Z M27.6923077,58.3390693 L27.6923077,56.8807238 C29.2058589,57.2766055 30.7941411,57.2766055 32.3076923,56.8807238 L32.3076923,58.3449026 C32.3076923,59.6335778 31.2745033,60.6782555 30,60.6782555 C28.7254967,60.6782555 27.6923077,59.6335778 27.6923077,58.3449026 L27.6923077,58.3355692 L27.6923077,58.3390693 Z M40.3846154,45.5056287 C40.3846154,46.1499663 39.8680208,46.6723051 39.2307692,46.6723051 C38.0692312,46.6848747 37.054638,47.4694791 36.7384615,48.5996546 C36.1211538,50.9330074 34.4307692,54.83904 30.0034615,54.83904 C25.5761539,54.83904 23.8880769,50.9295074 23.2707692,48.5984879 C22.9500802,47.4684847 21.9318761,46.6868426 20.7692308,46.6781385 C20.1319792,46.6781385 19.6153846,46.1557997 19.6153846,45.5114621 L19.6153846,43.7614475 C19.6153846,43.5727273 19.7059241,43.3957286 19.8580506,43.2863881 C20.010177,43.1770476 20.2052193,43.148876 20.3815385,43.2107762 C20.7349,43.3379995 21.1273715,43.2836087 21.4338462,43.0649417 C21.6527636,42.9015346 21.8118496,42.6692798 21.8861539,42.4046028 C21.9253846,42.2611016 22.9188462,38.86724 29.0319231,38.5545707 C29.4519231,40.1015836 31.0626923,43.4126113 37.1169231,43.4126113 C37.8669518,43.4100839 38.6162339,43.3645102 39.3611538,43.2761101 C39.4485756,43.2644621 39.5347228,43.2445412 39.6184615,43.2166096 C39.7935519,43.1623646 39.9836065,43.1929453 40.1333949,43.2994649 C40.2831833,43.4059845 40.3759052,43.5764957 40.3846154,43.7614475 L40.3846154,45.5056287 Z M27.6923077,29.172159 C27.6923077,28.696155 28.5911538,28.0054826 30,28.0054826 C31.4088462,28.0054826 32.3076923,28.696155 32.3076923,29.172159 C32.3076923,29.6481629 31.4088462,30.3388354 30,30.3388354 C28.5911538,30.3388354 27.6923077,29.6539963 27.6923077,29.1779924 L27.6923077,29.172159 Z M30,32.6721882 C34.4586527,32.6773317 38.0718362,36.3306922 38.0769231,40.8389231 L38.0769231,41.0384248 C33,41.3569274 31.6211538,39.2592432 31.2565385,37.9233987 C30.9726872,36.8570919 29.9884538,36.1379738 28.8980769,36.2002177 C26.5675893,36.2283652 24.2945302,36.9352023 22.3511539,38.236068 C23.4599772,34.9179358 26.5360945,32.6826702 30,32.6780216 L30,32.6721882 Z M33.8665385,31.1006751 C34.3393859,30.5733699 34.6056585,29.8897077 34.6153846,29.1779924 C34.6153846,27.214476 32.5880769,25.6779631 30,25.6779631 C27.4119231,25.6779631 25.3846154,27.214476 25.3846154,29.1779924 C25.3929396,29.8917256 25.6593059,30.5777034 26.1334615,31.1065085 C24.1711017,31.9077994 22.495927,33.2931934 21.33,35.0790416 C20.3522873,33.5788881 19.0118535,32.3560712 17.4357693,31.526512 C16.5922068,29.6946932 16.1546953,27.6986239 16.1538462,25.6779631 C16.1538462,17.945912 22.3529804,11.6778462 30,11.6778462 C37.6470196,11.6778462 43.8461538,17.945912 43.8461538,25.6779631 C43.8453047,27.6986239 43.4077932,29.6946932 42.5642307,31.526512 C40.9881465,32.3560712 39.6477127,33.5788881 38.67,35.0790416 C37.504073,33.2931934 35.8288983,31.9077994 33.8665385,31.1065085 L33.8665385,31.1006751 Z M5.95730774,48.5926545 C5.64282135,47.4616874 4.62343686,46.6797128 3.46153852,46.6781385 C2.82428688,46.6781385 2.30769236,46.1557997 2.30769236,45.5114621 L2.30769236,43.7614475 C2.30902954,43.5762278 2.39728372,43.4026577 2.54548343,43.2937822 C2.69368313,43.1849068 2.88421347,43.1536668 3.05884621,43.2096096 C3.4130322,43.342981 3.80936347,43.2925079 4.11977969,43.0744988 C4.4301959,42.8564898 4.61533828,42.4985869 4.61538467,42.1164338 L4.61538467,40.8447565 C4.60758133,36.9624896 7.30870029,33.6133564 11.0713285,32.839994 C14.8339567,32.0666316 18.6138996,34.0836614 20.1057693,37.6608965 C19.7811264,38.6903164 19.6157141,39.7642682 19.6153846,40.8447565 L19.6153846,40.9030903 C18.2721166,41.1803326 17.3074125,42.3752358 17.3076924,43.7614475 L17.3076924,45.5114621 C17.3093176,46.9016497 18.1244981,48.1590811 19.3846154,48.7151555 C19.0227345,50.1098651 18.3844462,51.4157195 17.5084616,52.5535209 C16.3473902,54.0388425 14.5642743,54.8871849 12.6923077,54.8448734 C8.27653851,54.8448734 6.57692312,50.9341741 5.95730774,48.5926545 Z M12.6923077,57.1782262 C13.4717343,57.1773795 14.2476495,57.072643 15,56.8667236 L15,58.3449026 C15,59.6335778 13.966811,60.6782555 12.6923077,60.6782555 C11.4178045,60.6782555 10.3846154,59.6335778 10.3846154,58.3449026 L10.3846154,56.8795571 C11.1378066,57.0797507 11.9135304,57.1801474 12.6923077,57.1782262 L12.6923077,57.1782262 Z M2.30769236,66.4999708 C2.31575704,63.0183534 4.8531831,60.0719176 8.26269235,59.5850797 C8.80406275,61.6050452 10.6160919,63.0083182 12.6858958,63.0105002 C14.7556997,63.0126823 16.5706189,61.6132328 17.1161539,59.5944131 C17.9736089,59.7104548 18.8014022,59.9903779 19.5553846,60.4192533 C18.1061143,62.1061712 17.3079499,64.2654581 17.3076924,66.4999708 L17.3076924,67.6666472 L2.30769236,67.6666472 L2.30769236,66.4999708 Z M57.6923076,66.4999708 L57.6923076,67.6666472 L42.6923077,67.6666472 L42.6923077,66.4999708 C42.6920501,64.2654581 41.8938857,62.1061712 40.4446154,60.4192533 C41.1977671,59.99037 42.0248075,59.7104366 42.8815384,59.5944131 C43.4270734,61.6132328 45.2419926,63.0126823 47.3117965,63.0105002 C49.3816004,63.0083182 51.1936296,61.6050452 51.735,59.5850797 C55.1454253,60.0708641 57.6840792,63.0175837 57.6923076,66.4999708 Z M49.6153846,58.3449026 C49.6153846,59.6335778 48.5821955,60.6782555 47.3076923,60.6782555 C46.033189,60.6782555 45,59.6335778 45,58.3449026 L45,56.8795571 C45.7531911,57.0797507 46.5289149,57.1801474 47.3076923,57.1782262 C48.0871189,57.1773795 48.8630341,57.072643 49.6153846,56.8667236 L49.6153846,58.3449026 Z M57.6923077,45.5114621 C57.6923077,45.8261947 57.5642486,46.1270641 57.3380769,46.3433024 C57.1275509,46.5600518 56.8389049,46.6809213 56.5384615,46.6781385 C55.3744805,46.6805899 54.3539808,47.4650797 54.0403846,48.5984879 C53.6807766,50.0366831 53.029291,51.3835433 52.1273076,52.5535209 C50.965497,54.0398385 49.1808655,54.888292 47.3076923,54.8448734 C42.9634615,54.8448734 41.2534615,51.0636752 40.6084615,48.7186556 C41.8724388,48.1641929 42.6908578,46.9045855 42.6923077,45.5114621 L42.6923077,43.7614475 C42.6925875,42.3752358 41.7278834,41.1803326 40.3846154,40.9030903 L40.3846154,40.8447565 C40.3842859,39.7642682 40.2188736,38.6903164 39.8942307,37.6608965 C41.3861004,34.0836614 45.1660433,32.0666316 48.9286715,32.839994 C52.6912997,33.6133564 55.3924187,36.9624896 55.3846153,40.8447565 L55.3846153,42.1164338 C55.3846617,42.4985869 55.5698041,42.8564898 55.8802203,43.0744988 C56.1906365,43.2925079 56.5869678,43.342981 56.9411538,43.2096096 C57.1157865,43.1536668 57.3063169,43.1849068 57.4545166,43.2937822 C57.6027163,43.4026577 57.6909705,43.5762278 57.6923077,43.7614475 L57.6923077,45.5114621 Z" id="Shape"></path></g></g></svg> 