<?xml version="1.0" encoding="UTF-8"?> <svg xmlns="http://www.w3.org/2000/svg" xmlns:xlink="http://www.w3.org/1999/xlink" width="96px" height="96px" viewBox="0 0 96 96" version="1.1"><title>Icons / Career / Forward</title><g id="Icons-/-Career-/-Forward" stroke="none" stroke-width="1" fill="none" fill-rule="evenodd"><g id="if" transform="translate(47.980577, 49.550684) rotate(-90.000000) translate(-47.980577, -49.550684) translate(12.980577, 29.072348)" fill="#FF6600" fill-rule="nonzero"><circle id="Oval" cx="26.4935478" cy="23.9299594" r="1.36719017"></circle><path d="M68.5241182,17.064614 L52.0760001,0.793136905 C51.2876783,0.0132916325 50.1173635,-0.21448225 49.0932013,0.212627959 C48.0698595,0.639874887 47.4085496,1.63231823 47.4085496,2.74097274 L47.4085496,8.06713548 L2.73971238,8.06713548 C1.22910396,8.06713548 0,9.29623945 0,10.8068479 L0,17.0945555 C0,17.8511585 0.61332151,18.46448 1.36992455,18.46448 L50.5182236,18.46448 C51.2037328,18.46448 51.7715269,17.9609439 51.8722888,17.3035988 L55.1186819,20.5138981 L51.8724255,23.7251543 C51.7722105,23.0672624 51.204143,22.5631794 50.5182236,22.5631794 L32.6341458,22.5631794 C31.8775427,22.5631794 31.2642212,23.1765009 31.2642212,23.933104 C31.2642212,24.689707 31.8775427,25.3030285 32.6341458,25.3030285 L49.1482991,25.3030285 L49.1482991,25.863303 C49.1482991,26.608285 49.5927726,27.2750636 50.2808794,27.5619001 C50.969123,27.8491468 51.7559409,27.6953379 52.2843599,27.1714306 L57.2355024,22.2736085 C57.7099174,21.8065764 57.9715976,21.1824541 57.9721445,20.516359 C57.9725546,19.8495804 57.711558,19.2242276 57.2376899,18.7563751 L52.1994574,13.7743341 C51.6855306,13.2627316 50.920451,13.1123406 50.250938,13.3907006 C49.5811515,13.6691972 49.1482991,14.3175188 49.1482991,15.0426764 L49.1482991,15.7249043 L2.73971238,15.7249043 L2.73971238,10.8069846 L48.7783374,10.8069846 C49.5348038,10.8069846 50.148262,10.1936631 50.148262,9.43706003 L50.1490823,2.74083602 C50.149219,2.74083602 50.149219,2.74097274 50.149219,2.74097274 L66.5992511,19.0140905 C67.025541,19.4343647 67.260561,19.995733 67.260561,20.5945623 C67.260561,21.1935283 67.0258145,21.7548966 66.5974738,22.1769482 L50.4331844,38.1671943 C50.407618,38.1927607 50.3541608,38.2462179 50.2506645,38.2028779 C50.148262,38.1602216 50.148262,38.0881707 50.148262,38.0494792 L50.148262,31.7522013 C50.148262,30.9955982 49.5349405,30.3822767 48.7783374,30.3822767 L2.73971238,30.3822767 L2.73971238,25.3027551 L20.3529499,25.3027551 C21.1095529,25.3027551 21.7228745,24.6894336 21.7228745,23.9328305 C21.7228745,23.1762275 21.1095529,22.562906 20.3529499,22.562906 L1.36992455,22.562906 C0.61332151,22.562906 0,23.1762275 0,23.9328305 L0,30.38214 C0,31.8927484 1.22910396,33.1218524 2.73971238,33.1218524 L47.4084129,33.1218524 L47.4084129,38.0493425 C47.4084129,39.2252627 48.1096447,40.2777257 49.1949203,40.7309493 C49.5585929,40.8828441 49.9396288,40.9566724 50.3172467,40.9566724 C51.0670138,40.9566724 51.8029723,40.6654609 52.3595554,40.1150301 L68.5222041,24.1261512 C69.4752724,23.1868916 70,21.9324946 70,20.5942889 C70,19.2563566 69.4752724,18.0020963 68.5241182,17.064614 L68.5241182,17.064614 Z" id="Path"></path></g></g></svg> 