<?xml version="1.0" encoding="UTF-8"?> <svg xmlns="http://www.w3.org/2000/svg" xmlns:xlink="http://www.w3.org/1999/xlink" width="96px" height="96px" viewBox="0 0 96 96" version="1.1"><title>Icons / Career / Healthcare</title><g id="Icons-/-Career-/-Healthcare" stroke="none" stroke-width="1" fill="none" fill-rule="evenodd"><rect id="Rectangle-Copy-5" x="0" y="0" width="44" height="44"></rect><g id="healthcare" transform="translate(13.000000, 13.000000)" fill="#E67D63" fill-rule="nonzero"><path d="M26.8063086,36.1046272 C27.1658789,36.1046272 27.4993359,35.9132307 27.6847266,35.6001627 L29.534668,32.4785111 L31.9860352,36.4358903 C32.1777148,36.7454859 32.5126758,36.9292432 32.8753906,36.9225763 C33.2353711,36.9149371 33.565,36.7160403 33.7438281,36.3985277 L37.6902148,29.3932497 L42.9905273,39.2061391 C43.1674414,39.5336521 43.5034961,39.7399103 43.8712695,39.7465772 C43.8772852,39.7465772 43.8834375,39.7467161 43.8894531,39.7467161 C44.2502539,39.7467161 44.5852148,39.5537918 44.770332,39.2380848 L48.0725,33.6064725 L56.0352734,33.6064725 C56.6015625,33.6064725 57.0606641,33.1400651 57.0606641,32.5647645 C57.0606641,31.9894639 56.6015625,31.5230565 56.0352734,31.5230565 L47.4898047,31.5230565 C47.128457,31.5230565 46.7937695,31.7162586 46.6089258,32.0316878 L43.925957,36.6071471 L38.6080078,26.7614786 C38.4294531,26.4310489 38.0892969,26.224374 37.7182422,26.2209016 C37.7150977,26.2209016 37.7120898,26.2209016 37.7089453,26.2209016 C37.3414453,26.2209016 37.0018359,26.4207707 36.819043,26.7450891 L32.8120898,33.8578713 L30.3831445,29.9367435 C30.195293,29.633537 29.8675781,29.4499186 29.5152539,29.4499186 C29.5119727,29.4499186 29.5085547,29.4499186 29.5051367,29.4499186 C29.1491211,29.453391 28.8204492,29.6443708 28.6368359,29.9542442 L26.2267578,34.0212112 L20.3991211,34.0212112 C19.832832,34.0212112 19.3737305,34.4876186 19.3737305,35.0629192 C19.3737305,35.6382198 19.832832,36.1046272 20.3991211,36.1046272 L26.8063086,36.1046272 Z" id="Path"></path><path d="M57.8451562,7.19264653 C57.2788672,7.19264653 56.8197656,7.65905393 56.8197656,8.23435454 L56.8197656,11.3072543 L53.7952734,11.3072543 C53.2289844,11.3072543 52.7698828,11.7736617 52.7698828,12.3489623 C52.7698828,12.9242629 53.2289844,13.3906703 53.7952734,13.3906703 L56.8197656,13.3906703 L56.8197656,16.4637089 C56.8197656,17.0390095 57.2788672,17.5054169 57.8451562,17.5054169 C58.4114453,17.5054169 58.8705469,17.0390095 58.8705469,16.4637089 L58.8705469,13.3906703 L61.8950391,13.3906703 C62.4613281,13.3906703 62.9204297,12.9242629 62.9204297,12.3489623 C62.9204297,11.7736617 62.4613281,11.3072543 61.8950391,11.3072543 L58.8705469,11.3072543 L58.8705469,8.23435454 C58.8705469,7.65905393 58.4114453,7.19264653 57.8451562,7.19264653 Z" id="Path"></path><path d="M61.4632813,42.8836462 C66.4588477,37.4580142 67.8905664,29.2536609 65.1445703,22.2200484 C68.0912695,19.9638478 70,16.3788444 70,12.3489623 C70,5.53966427 64.5473828,0 57.8451563,0 C55.0920508,0 52.3960938,0.959899202 50.2537109,2.70288504 C49.8116992,3.06248264 49.740332,3.71806421 50.0942969,4.16710981 C50.4482617,4.61601651 51.0935742,4.68865828 51.5355859,4.32906068 C53.3413672,2.85983571 55.523125,2.08341601 57.8450195,2.08341601 C63.4163086,2.08341601 67.949082,6.68859875 67.949082,12.3489623 C67.949082,18.011687 63.4164453,22.6185364 57.8450195,22.6185364 C52.6575,22.6185364 48.3723242,18.6269892 47.8033008,13.5085916 C47.802207,13.4967856 47.800293,13.4848407 47.7987891,13.4728957 C47.7590039,13.1035755 47.7369922,12.7288384 47.7369922,12.3489623 C47.7369922,10.7411207 48.0925977,9.20355967 48.7936914,7.7787809 C49.0468945,7.26417715 48.841543,6.63845788 48.3351367,6.38108655 C47.8281836,6.12399302 47.2126758,6.33247351 46.9593359,6.84693837 C46.1145508,8.56353427 45.6862109,10.4147188 45.6862109,12.3488234 C45.6862109,12.5238303 45.6907227,12.6977261 45.697832,12.8710663 C43.1086523,13.8112425 40.691875,15.3575539 38.6665234,17.3811064 L37.533125,18.5130958 C37.5276563,18.50754 37.5235547,18.5033731 37.5180859,18.4978174 L36.4038281,17.3824953 C32.7985547,13.7712409 28.0790234,11.7531053 23.4538281,11.8503314 C19.6051953,11.9308901 16.1995313,13.4628954 13.6059766,16.2796738 C13.2190625,16.7005238 13.2409375,17.3602722 13.6551953,17.7533434 C14.0694531,18.1450256 14.7175,18.1241914 15.1044141,17.7033414 C17.3110547,15.306024 20.2122266,14.0018056 23.4962109,13.9337474 C27.5704297,13.8490218 31.7499219,15.6477043 34.9641797,18.8658875 L36.0798047,19.9825985 C36.6184766,20.5215088 37.0778516,20.789575 37.5358594,20.789575 C37.9897656,20.789575 38.4423047,20.5256756 38.9714063,19.9978769 L40.1048047,18.8658875 C41.8079102,17.1652645 43.8167188,15.8410453 45.9673047,14.991706 C47.1618164,20.5374816 52.0332422,24.7018136 57.8448828,24.7018136 C59.8345508,24.7018136 61.7140234,24.2134609 63.3733789,23.3484265 C65.6455078,29.5571451 64.3409375,36.6997897 59.9727734,41.4513671 L45.2525391,56.7591968 L44.034375,57.0008731 C43.7390625,57.0592087 43.4779297,57.1119886 43.2400391,57.1606016 C41.6951172,57.4786698 41.3259766,57.5536728 39.5171875,57.2703282 L30.7466797,55.6410969 C29.5517578,55.2216358 29.6720703,54.2549308 29.7390625,53.9646415 C29.8443359,53.5132347 30.2572266,52.784039 31.1445312,52.9201556 C31.1527344,52.9215445 31.1609375,52.9229334 31.1691406,52.9243224 C31.5642578,52.9757133 31.9880859,53.0312711 32.4310547,53.0882178 C34.0921875,53.306282 35.9734375,53.5521251 37.6441406,53.7257431 C41.0621094,54.0771459 42.9953125,52.2548514 43.3972656,50.2908846 C43.8060547,48.2894162 42.6835937,45.6281995 39.2519531,44.5156554 C39.2109375,44.5031549 39.1685547,44.4920433 39.1248047,44.4837097 L33.4769531,43.4308901 C30.4117187,42.8600341 28.0273437,43.3003294 24.4179688,43.9670225 C23.4636719,44.1434184 22.3808594,44.3420374 21.175,44.5434343 L18.4980469,44.9906742 L17.6736328,44.1336958 L15.0964844,41.4530339 C10.2798828,36.2069923 9.21210937,27.9899996 12.5042969,21.4661296 C12.7626953,20.9549982 12.5630859,20.3271955 12.0599609,20.0646851 C11.5554687,19.8021747 10.9375,20.0035716 10.6791016,20.5160919 C6.99863281,27.8108258 8.20175781,37.008413 13.60625,42.8836462 C13.6117187,42.889202 13.6171875,42.8947577 13.6212891,42.9003135 L16.0275391,45.4031906 L11.5461719,46.1515536 L11.5461719,46.03266 C11.5461719,45.2283226 10.8476758,44.573991 9.98908203,44.573991 L1.553125,44.573991 C0.69671875,44.573991 0,45.2283226 0,46.03266 L0,64.3618596 C0,65.1661971 0.69671875,65.8205286 1.553125,65.8205286 L9.98921875,65.8205286 C10.8478125,65.8205286 11.5463086,65.1661971 11.5463086,64.3618596 L11.5463086,64.2356046 L20.7675781,66.7845946 L29.2796875,69.1346879 C31.2224609,69.7472122 32.7878906,70 34.2166016,70 C36.4779297,70 38.3988281,69.3694194 40.9363281,68.536053 C41.1619141,68.462439 41.3929688,68.3860471 41.6308594,68.3082662 L58.4048828,62.8441605 C60.3490234,62.210802 61.7326172,60.7885234 62.1044922,59.0398429 C62.3929688,57.6842335 61.9910156,56.3452915 61.0285156,55.4577563 C60.2492187,54.7396722 58.4171875,53.7090758 54.8857422,54.843843 L48.7962891,56.0536132 L61.4482422,42.9003135 C61.4537109,42.8947577 61.4578125,42.889202 61.4632812,42.8836462 L61.4632813,42.8836462 Z M2.05078125,63.7371126 L2.05078125,46.6572681 L9.49539063,46.6572681 L9.49539063,47.372991 C9.49539063,47.3752133 9.49511719,47.3772967 9.49511719,47.379519 L9.49511719,62.8718005 C9.49511719,62.8730505 9.49539063,62.8741617 9.49539063,62.8754117 L9.49539063,63.7371126 L2.05078125,63.7371126 Z M55.453125,56.8467003 C57.3453125,56.2300091 58.8751953,56.2855669 59.6517578,57.0008731 C60.0701172,57.3869995 60.2341797,57.970356 60.1001953,58.5981587 C59.8841797,59.6106988 59.0160156,60.4565657 57.7787109,60.8593595 L41.0033203,66.3248542 C40.7640625,66.402635 40.5316406,66.4790269 40.3046875,66.5540299 C36.2919922,67.8707488 34.278125,68.5332751 29.8703125,67.1401643 C29.859375,67.1359975 29.8470703,67.1332196 29.8347656,67.1290527 L11.5461719,62.0762133 L11.5461719,48.2630263 L21.5072266,46.6004603 C22.7294922,46.3962856 23.821875,46.1934997 24.7857422,46.0157149 C28.2925781,45.368467 30.4103516,44.9781737 33.1064453,45.4809715 L38.6886719,46.5212905 C40.8652344,47.2477082 41.6158203,48.7602683 41.3888672,49.8672566 C41.1277344,51.1464741 39.7386719,51.8478908 37.8519531,51.6534386 C36.2085938,51.4825985 34.3410156,51.2381444 32.6935547,51.022858 C32.2533203,50.9645224 31.8308594,50.9089646 31.4384766,50.8589627 C29.4779297,50.5645065 28.0957031,51.9576174 27.7429688,53.4896226 C27.6677734,53.8160244 27.6376953,54.1632604 27.6595703,54.5132743 C27.7347656,55.7799913 28.4798828,57.0939323 30.1806641,57.6453431 C30.2230469,57.6592325 30.7890625,57.7661812 30.7890625,57.7661812 L39.1630859,59.3217985 C39.1712891,59.3231874 39.1808594,59.3245764 39.1904297,59.3259653 C40.9185547,59.5995873 41.6664062,59.5759752 42.7259766,59.3856899 C43.0035156,59.3356879 44.1355469,59.1023453 44.4267578,59.0453986 L46.2724609,58.6787174 C46.2724609,58.6787174 55.4148438,56.8592008 55.453125,56.8467003 L55.453125,56.8467003 Z" id="Shape"></path></g></g></svg> 