<?xml version="1.0" encoding="UTF-8"?> <svg xmlns="http://www.w3.org/2000/svg" xmlns:xlink="http://www.w3.org/1999/xlink" width="96px" height="96px" viewBox="0 0 96 96" version="1.1"><title>Icons / Career / Offices</title><g id="Icons-/-Career-/-Offices" stroke="none" stroke-width="1" fill="none" fill-rule="evenodd"><g id="care" transform="translate(15.001123, 15.000000)" fill="#247FB6" fill-rule="nonzero"><path d="M52.7854013,40.9893045 C51.2678114,39.7525971 49.0685759,39.794491 47.778631,41.084307 C47.7690921,41.0939748 47.7595532,41.1037715 47.7501432,41.1138261 L39.921401,49.4563806 L36.0778628,49.5867028 C37.4820168,48.1299558 37.6403113,46.4200409 37.2545008,45.2196844 C36.6889978,43.4613015 34.9320328,42.4038999 32.8863223,42.5843658 C32.144865,42.6504937 30.5102301,43.1640483 27.9046884,43.9966409 C26.3388884,44.4970472 23.9725929,45.2531995 23.4777295,45.2971559 C22.7103625,45.3656041 22.0613295,45.3560651 21.1778198,45.2629963 C19.3299772,44.9127634 17.4576429,44.8193078 15.6118629,44.984692 C14.9027605,45.0482418 14.3794093,45.6745876 14.443088,46.3836899 C14.5067667,47.0927922 15.132339,47.6164013 15.8420859,47.5524648 C17.4665373,47.4070608 19.1158673,47.4918798 20.7450882,47.8051171 C20.7798923,47.8118201 20.8149543,47.8171052 20.850274,47.8208434 C21.9271402,47.9368573 22.7545766,47.9497477 23.70589,47.8651865 C24.4474762,47.7991875 26.0826267,47.2853752 28.6893286,46.4525247 C30.3480686,45.9224704 32.6198772,45.1964817 33.1146117,45.1523964 C33.9715672,45.0758273 34.6028114,45.3962833 34.799906,46.0090941 C35.0002232,46.6319595 34.7341648,47.6548147 33.3252413,48.4871495 C30.3621191,50.2376693 27.5774005,51.6953187 24.8122753,52.942983 C24.1633712,53.2357245 23.8747546,53.9992244 24.1674962,54.6482574 C24.4602377,55.2970325 25.2236087,55.5855202 25.8727706,55.2930365 C27.8322442,54.4087533 29.7988075,53.4237958 31.8253113,52.3104498 L40.540657,52.0151301 C40.8814799,52.0035287 41.2037405,51.8574802 41.4369283,51.6089528 L49.6125519,42.8969586 C50.0008115,42.5245542 50.7346634,42.6440485 51.1568249,42.9882229 C51.9154264,43.6063188 51.4333245,44.6033932 51.0784511,45.1427286 L45.9101638,52.9963493 C45.1466639,54.1563587 44.1787219,55.4143354 42.7882316,55.9489013 C36.555453,58.3447158 30.9887227,59.8472239 27.897083,59.968136 L15.2758095,60.4610659 C14.8588042,60.4773079 14.475314,60.6946404 14.2470246,61.043971 L12.8796082,63.1369894 C12.8665889,63.1568406 12.854343,63.1770786 12.8424838,63.1975744 C12.7594695,63.3413026 12.6314675,63.3936378 12.5389143,63.4120711 C12.4149084,63.4365629 12.290258,63.4131023 12.2058257,63.3483924 L2.73883929,56.1066801 C2.44184388,55.7658573 2.63648931,55.4830413 2.70248829,55.3870077 C3.64516511,54.0162398 4.7563198,52.7824972 6.00475753,51.7199394 C6.54692883,51.258591 6.6125411,50.4450763 6.15106386,49.902905 C5.68997333,49.3607337 4.87607186,49.2951214 4.33402946,49.7565987 C2.91298894,50.9658495 1.64934051,52.3687145 0.578275042,53.9261357 C-0.316062689,55.2265219 -0.16163539,56.855485 0.962409727,57.9795301 C1.00275676,58.0197482 1.04555297,58.0573882 1.09066946,58.0918057 L10.6392523,65.3959076 C11.1556427,65.7908702 11.7899806,65.9999529 12.4415916,65.9999529 C12.641651,65.9999529 12.8432572,65.9802306 13.0435745,65.9402702 C13.8867372,65.7717924 14.6174954,65.2556597 15.0547387,64.5214211 L16.0415007,63.0110499 L27.9978862,62.5440298 C31.4063725,62.4108717 37.134491,60.8840008 43.7132486,58.3551571 C45.7972437,57.5540171 47.1329496,55.8278602 48.0637672,54.4133938 L53.2320545,46.5597731 C54.8782908,44.0581282 54.020304,41.9955312 52.7854013,40.9893045 L52.7854013,40.9893045 Z" id="Path"></path><path d="M65.0368485,8.020623 C64.9965015,7.98040487 64.9537053,7.94276483 64.9085888,7.90834739 L55.3597482,0.603987697 C54.6849344,0.0877261497 53.8079987,-0.110786405 52.955426,0.0597539261 C52.1122632,0.228231789 51.3816339,0.744364432 50.9443907,1.47873198 L49.9577575,2.98884535 L38.0012432,3.45599437 C34.5927568,3.58915247 28.8646384,5.11602339 22.2858807,7.64486709 C20.2020145,8.44587814 18.8663086,10.172035 17.9353621,11.5865014 L12.7670748,19.4401222 C11.1208386,21.9416382 11.9789542,24.0042352 13.2137281,25.0104618 C13.9522206,25.612058 14.8515856,25.9111159 15.7294235,25.9111159 C16.6559873,25.9111159 17.5583171,25.5777694 18.2206272,24.9154594 C18.2301661,24.9057916 18.239705,24.8959948 18.249115,24.8859403 L26.0778573,16.5432568 L29.9213955,16.4130635 C28.5172414,17.8696816 28.3588181,19.5797255 28.7448863,20.779953 C29.3102604,22.5384649 31.0660653,23.5974134 33.1128071,23.4152716 C33.8543932,23.3492727 35.4895437,22.8354603 38.0958589,22.0026099 C39.6612722,21.5023325 42.0267942,20.7464379 42.5213998,20.7024816 C43.2883802,20.6344201 43.9374131,20.6437012 44.8211807,20.7366412 C46.6687654,21.087003 48.5408419,21.1805875 50.3871376,21.0150744 C51.0962399,20.9515246 51.6195912,20.3251788 51.5559125,19.6160765 C51.4924916,18.9071031 50.8682083,18.3836229 50.1569146,18.4473016 C48.5322053,18.5925767 46.8828754,18.5077577 45.2540412,18.1945203 C45.2191081,18.1878173 45.1839173,18.1825323 45.1485975,18.178794 C44.0716024,18.0626513 43.244166,18.0498898 42.2931104,18.134451 C41.5516531,18.2004499 39.9168893,18.7141334 37.3112187,19.5468549 C35.7455476,20.0471323 33.3793811,20.8032847 32.8845176,20.847241 C32.0247262,20.9234235 31.3961891,20.6032253 31.1992234,19.9906723 C30.9989062,19.367678 31.2649645,18.3449516 32.6738881,17.5126168 C35.6370102,15.762097 38.4217289,14.3044477 41.1868541,13.0567834 C41.8357581,12.7640418 42.1243747,12.0005419 41.8316332,11.351509 C41.5387627,10.7027339 40.7755206,10.4142461 40.1263587,10.7067299 C38.1668851,11.5910131 36.2003218,12.5759705 34.173818,13.6893166 L25.4584723,13.9845073 C25.1176495,13.9961087 24.7953888,14.1421572 24.562201,14.3906846 L16.3864485,23.1029366 C15.99806,23.4752121 15.2644659,23.3554601 14.8423045,23.0114146 C14.0837029,22.3933187 14.5658048,21.3962443 14.9206782,20.8569089 L20.0889655,13.003417 C20.8524654,11.8432787 21.8204075,10.5853021 23.2108977,10.050865 C29.4436763,7.65505053 35.0104066,6.15254251 38.1020463,6.03163032 L50.7233199,5.53857154 C51.1403251,5.5223296 51.5238153,5.30499703 51.7519758,4.95566649 L53.1193922,2.86277698 C53.1325404,2.84292573 53.1447863,2.82268776 53.1566455,2.80219198 C53.2397888,2.65846374 53.3676618,2.60612861 53.460215,2.5876953 C53.584092,2.56268787 53.7087424,2.58666407 53.7933036,2.6512451 L63.26029,9.89308623 C63.5572855,10.2339091 63.36264,10.5165961 63.296641,10.6126298 C62.3539642,11.9832687 61.2428095,13.2171403 59.9942429,14.279827 C59.4520716,14.7411753 59.3865882,15.554819 59.8480655,16.0969903 C60.3092849,16.6392905 61.1231864,16.7047739 61.6652288,16.2431677 C63.0862693,15.0336591 64.3499177,13.6307941 65.4208543,12.0735017 C66.315192,10.7736312 66.1608936,9.14466812 65.0368485,8.020623 L65.0368485,8.020623 Z" id="Path"></path><path d="M32.9995002,41.20277 C33.5231093,41.20277 34.0464606,41.0036129 34.4450325,40.605041 L40.3182972,34.7317763 C42.5873988,32.4626747 42.5873988,28.770599 40.3182972,26.5014974 C38.3329138,24.5162429 35.2581606,24.2679733 33.0005314,25.7566886 C32.0578546,25.1321474 30.9525006,24.7969964 29.7958427,24.7969964 C28.2413863,24.7969964 26.7798698,25.4024597 25.6807032,26.5016263 C23.4116016,28.7707279 23.4116016,32.4628036 25.6807032,34.7319052 L31.5539679,40.6051699 C31.9526687,41.0037418 32.4761489,41.20277 32.9995002,41.20277 Z M27.503925,28.3245903 C28.1160914,27.712295 28.9301217,27.3750815 29.7959716,27.3750815 C30.6618215,27.3752104 31.475723,27.712295 32.0880182,28.3245903 C32.5915182,28.8280903 33.4074822,28.8280903 33.9111111,28.3245903 C35.1747595,27.0610707 37.2315559,27.060684 38.4953332,28.3245903 C39.7591105,29.5884965 39.7592394,31.6449061 38.4953332,32.9088123 L32.9995002,38.4046453 L27.5037961,32.9088123 C26.2400188,31.6449061 26.2400188,29.5884965 27.503925,28.3245903 L27.503925,28.3245903 Z" id="Shape"></path><path d="M55.8994703,17.0287103 L55.898568,17.0287103 C55.1867587,17.0287103 54.610041,17.6059435 54.610041,18.3177528 C54.610041,19.0295621 55.1875321,19.6067954 55.8994703,19.6067954 C56.6114085,19.6067954 57.1885129,19.0295621 57.1885129,18.3177528 C57.1885129,17.6059435 56.6112796,17.0287103 55.8994703,17.0287103 Z" id="Path"></path><path d="M10.1006903,48.971185 C10.8124996,48.971185 11.3897328,48.3939518 11.3897328,47.6821425 C11.3897328,46.9703331 10.8124996,46.3930999 10.1006903,46.3930999 L10.099659,46.3930999 C9.38784974,46.3930999 8.8111321,46.9703331 8.8111321,47.6821425 C8.8111321,48.3939518 9.38875207,48.971185 10.1006903,48.971185 L10.1006903,48.971185 Z" id="Path"></path></g></g></svg> 