<?xml version="1.0" encoding="UTF-8"?> <svg xmlns="http://www.w3.org/2000/svg" xmlns:xlink="http://www.w3.org/1999/xlink" width="96px" height="96px" viewBox="0 0 96 96" version="1.1"><title>Icons / Career / Remote</title><g id="Icons-/-Career-/-Remote" stroke="none" stroke-width="1" fill="none" fill-rule="evenodd"><g id="home-automation" transform="translate(13.000000, 21.000000)" fill="#009184" fill-rule="nonzero"><path d="M0,48.1304348 C0.00385713572,51.3704972 2.61327132,53.9961189 5.83333333,54 L64.1666667,54 C67.3867287,53.9961189 69.9961429,51.3704972 70,48.1304348 L70,5.86956522 C69.9961429,2.62950282 67.3867287,0.00388109309 64.1666667,3.90991587e-15 L5.83333333,3.90991587e-15 C2.61327132,0.00388109309 0.00385713572,2.62950282 0,5.86956522 L0,48.1304348 Z M63,46.9565217 L7,46.9565217 L7,7.04347826 L63,7.04347826 L63,46.9565217 Z M2.33333333,5.86956522 C2.33333333,3.9245624 3.90033671,2.34782609 5.83333333,2.34782609 L64.1666667,2.34782609 C66.0996633,2.34782609 67.6666667,3.9245624 67.6666667,5.86956522 L67.6666667,23.6942609 C66.9152292,23.4062179 66.0847708,23.4062179 65.3333333,23.6942609 L65.3333333,7.04347826 C65.3333333,5.74680972 64.2886644,4.69565217 63,4.69565217 L7,4.69565217 C5.71133558,4.69565217 4.66666667,5.74680972 4.66666667,7.04347826 L4.66666667,46.9565217 C4.66666667,48.2531903 5.71133558,49.3043478 7,49.3043478 L63,49.3043478 C64.2886644,49.3043478 65.3333333,48.2531903 65.3333333,46.9565217 L65.3333333,30.3057391 C66.0847708,30.5937821 66.9152292,30.5937821 67.6666667,30.3057391 L67.6666667,48.1304348 C67.6666667,50.0754376 66.0996633,51.6521739 64.1666667,51.6521739 L5.83333333,51.6521739 C3.90033671,51.6521739 2.33333333,50.0754376 2.33333333,48.1304348 L2.33333333,5.86956522 Z M67.6666667,27 C67.6666667,27.6483343 67.1443322,28.173913 66.5,28.173913 C65.8556678,28.173913 65.3333333,27.6483343 65.3333333,27 C65.3333333,26.3516657 65.8556678,25.826087 66.5,25.826087 C67.1443322,25.826087 67.6666667,26.3516657 67.6666667,27 Z" id="Shape"></path><path d="M36.3125,12.1617391 C35.5267663,11.6006623 34.4744004,11.6006623 33.6886667,12.1617391 L30.3333333,14.5565217 L30.3333333,14.0869565 C30.3333333,12.790288 29.2886644,11.7391304 28,11.7391304 L25.6666667,11.7391304 C24.3780023,11.7391304 23.3333333,12.790288 23.3333333,14.0869565 L23.3333333,19.5433043 L19.159,22.5203478 C18.8152504,22.7613479 18.626322,23.1693075 18.6640263,23.5891622 C18.7017305,24.0090169 18.9602773,24.3762912 19.3413934,24.5513849 C19.7225096,24.7264786 20.1676687,24.6825033 20.5076667,24.4361739 L21,24.084 L21,39.9130435 C21,41.8580463 22.5670034,43.4347826 24.5,43.4347826 L45.5,43.4347826 C47.4329966,43.4347826 49,41.8580463 49,39.9130435 L49,24.0851739 L49.4923333,24.4373478 C50.0181,24.8059585 50.740924,24.6788821 51.1113208,24.1527209 C51.4817177,23.6265597 51.3610285,22.8982837 50.841,22.5215217 L36.3125,12.1617391 Z M25.6666667,14.0869565 L28,14.0869565 L28,16.2164348 L25.6666667,17.8798696 L25.6666667,14.0869565 Z M38.5,41.0869565 L31.5,41.0869565 L31.5,30.5217391 C31.5,29.8734049 32.0223345,29.3478261 32.6666667,29.3478261 L37.3333333,29.3478261 C37.9776655,29.3478261 38.5,29.8734049 38.5,30.5217391 L38.5,41.0869565 Z M46.6666667,39.9130435 C46.6666667,40.5613777 46.1443322,41.0869565 45.5,41.0869565 L40.8333333,41.0869565 L40.8333333,30.5217391 C40.8333333,28.5767363 39.26633,27 37.3333333,27 L32.6666667,27 C30.73367,27 29.1666667,28.5767363 29.1666667,30.5217391 L29.1666667,41.0869565 L24.5,41.0869565 C23.8556678,41.0869565 23.3333333,40.5613777 23.3333333,39.9130435 L23.3333333,22.4111739 L34.9615,14.0763913 L46.6666667,22.4217391 L46.6666667,39.9130435 Z" id="Shape"></path></g></g></svg> 