<?xml version="1.0" encoding="UTF-8"?> <svg xmlns="http://www.w3.org/2000/svg" xmlns:xlink="http://www.w3.org/1999/xlink" width="96px" height="96px" viewBox="0 0 96 96" version="1.1"><title>Icons / Career / Security</title><g id="Icons-/-Career-/-Security" stroke="none" stroke-width="1" fill="none" fill-rule="evenodd"><g id="nft" transform="translate(15.000000, 13.000000)" fill="#F9A900" fill-rule="nonzero"><path d="M0,45.4550881 C0.007445648,50.4899784 2.7445817,55.1330005 7.16807143,57.6143355 L26.0252143,68.1802861 C30.3528147,70.6065713 35.6483639,70.6065713 39.9759643,68.1802861 L58.8331071,57.6143355 C63.254708,55.1312612 65.9908243,50.4892056 66,45.4550881 L66,24.5111141 C65.9930476,19.4760913 63.2557773,14.8328414 58.8319286,12.3518667 L39.9747857,1.78591607 C35.6344732,-0.595305355 30.3619911,-0.595305355 26.0216786,1.78591607 L7.16453571,12.3530339 C2.74241575,14.8347031 0.00665410717,19.4772384 0,24.5111141 L0,45.4550881 Z M2.35714286,24.5111141 C2.36327199,20.3175385 4.64323669,16.4503922 8.32778571,14.3840496 L27.1849286,3.81576451 C30.7931174,1.79320079 35.2080612,1.79320079 38.81625,3.81576451 L57.6733929,14.3828824 C61.3578538,16.4497313 63.6373924,20.3173641 63.6428571,24.5111141 L63.6428571,45.4550881 C63.6362291,49.6482218 61.3569493,53.5149696 57.6733929,55.5821526 L38.81625,66.1492704 C35.1985004,68.1323431 30.8050353,68.1323431 27.1872857,66.1492704 L8.33014286,55.5821526 C4.64486484,53.5162304 2.36399986,49.6490838 2.35714286,45.4550881 L2.35714286,24.5111141 Z" id="Shape"></path><path d="M10.0697143,52.5344618 L28.9268571,63.1015796 C31.4560603,64.5101442 34.5439397,64.5101442 37.0731429,63.1015796 L55.9302857,52.5344618 C58.5070665,51.090655 60.1021026,48.3872212 60.1071429,45.4550881 L60.1071429,24.5111141 C60.1023494,21.5789146 58.507246,18.8753669 55.9302857,17.4317404 L37.0731429,6.86345531 C34.5440003,5.45466151 31.4559997,5.45466151 28.9268571,6.86345531 L10.0697143,17.4317404 C7.49275399,18.8753669 5.89765063,21.5789146 5.89285714,24.5111141 L5.89285714,45.4550881 C5.89789737,48.3872212 7.49293351,51.090655 10.0697143,52.5344618 Z M8.25,24.5111141 C8.25259145,22.4184725 9.39047594,20.4886525 11.2294286,19.4580871 L30.0865714,8.88980201 C31.8962326,7.88447672 34.1037674,7.88447672 35.9134286,8.88980201 L54.7705714,19.4580871 C56.6095241,20.4886525 57.7474085,22.4184725 57.75,24.5111141 L57.75,45.4550881 C57.7467379,47.5472457 56.6089783,49.4764082 54.7705714,50.5069478 L35.9134286,61.0740657 C34.1037072,62.0791629 31.8962928,62.0791629 30.0865714,61.0740657 L11.2294286,50.5069478 C9.39102172,49.4764082 8.25326213,47.5472457 8.25,45.4550881 L8.25,24.5111141 Z" id="Shape"></path><path d="M22.3928571,53.6585239 L43.6071429,53.6585239 C46.210771,53.6585239 48.3214286,51.5681407 48.3214286,48.9895223 L48.3214286,29.1462655 C48.3133968,27.0237238 46.8608075,25.1736377 44.7857143,24.6430134 L44.7857143,24.4772639 C44.7857143,18.0307179 39.5090703,12.8047599 33,12.8047599 C26.4909297,12.8047599 21.2142857,18.0307179 21.2142857,24.4772639 L21.2142857,24.6430134 C19.1391925,25.1736377 17.6866032,27.0237238 17.6785714,29.1462655 L17.6785714,48.9895223 C17.6785714,51.5681407 19.789229,53.6585239 22.3928571,53.6585239 Z M33,15.1392607 C38.204833,15.1450501 42.4227259,19.3224271 42.4285714,24.4772639 L40.0714286,24.4772639 C40.0714286,20.6093363 36.9054422,17.4737615 33,17.4737615 C29.0945578,17.4737615 25.9285714,20.6093363 25.9285714,24.4772639 L23.5714286,24.4772639 C23.5772741,19.3224271 27.795167,15.1450501 33,15.1392607 Z M28.2857143,24.4772639 C28.2857143,21.8986455 30.3963719,19.8082623 33,19.8082623 C35.6036281,19.8082623 37.7142857,21.8986455 37.7142857,24.4772639 L28.2857143,24.4772639 Z M20.0357143,29.1462655 C20.0357143,27.8569563 21.0910431,26.8117647 22.3928571,26.8117647 L43.6071429,26.8117647 C44.9089569,26.8117647 45.9642857,27.8569563 45.9642857,29.1462655 L45.9642857,48.9895223 C45.9642857,50.2788315 44.9089569,51.3240231 43.6071429,51.3240231 L22.3928571,51.3240231 C21.0910431,51.3240231 20.0357143,50.2788315 20.0357143,48.9895223 L20.0357143,29.1462655 Z" id="Shape"></path><path d="M28.6392857,43.3517029 C28.4956966,44.1717165 28.7250052,45.0126819 29.2658688,45.649632 C29.8067325,46.286582 30.6039604,46.6545211 31.4442857,46.6550234 L34.5557143,46.6550234 C35.3964002,46.6560001 36.1946282,46.2893012 36.7368579,45.6530234 C37.2790876,45.0167456 37.5099868,44.1758182 37.3677857,43.3552046 L37.0648929,41.5377957 C38.8086253,39.891481 39.3649322,37.3597421 38.4696806,35.1446419 C37.5744289,32.9295416 35.407926,31.4772099 32.9988214,31.4772099 C30.5897169,31.4772099 28.4232139,32.9295416 27.5279623,35.1446419 C26.6327107,37.3597421 27.1890176,39.891481 28.93275,41.5377957 L28.6392857,43.3517029 Z M33,33.8152671 C34.9527211,33.8152671 36.535746,35.3830545 36.535746,37.3170183 C36.540494,38.4314486 36.0042091,39.4802525 35.0943214,40.135928 C34.7377614,40.3963961 34.558822,40.8329088 34.6311429,41.2658264 L35.0424643,43.7403972 L35.0424643,43.748568 C35.0688082,43.8904616 35.0294385,44.0365727 34.9352143,44.1466004 C34.8408622,44.257244 34.7019428,44.3209091 34.5557143,44.3205472 L31.4442857,44.3205472 C31.2958953,44.3220533 31.154751,44.2570976 31.0602446,44.1437822 C30.9657383,44.0304668 30.9279903,43.8809262 30.9575357,43.7368955 L31.3688571,41.2623246 C31.441178,40.8294071 31.2622386,40.3928943 30.9056786,40.1324262 C29.9968042,39.4774745 29.4606432,38.4302155 29.4642673,37.3170183 C29.4642673,35.3830545 31.0472789,33.8152671 33,33.8152671 Z" id="Shape"></path></g></g></svg> 